<mxfile host="app.diagrams.net" modified="2022-01-17T16:10:40.643Z" agent="5.0 (Windows)" etag="U8_IA2p9qsfjPsKsuXML" version="16.2.6" type="github" pages="2">
  <diagram id="5KZukYB-vOgicKCg5e1S" name="Use_Case">
    <mxGraphModel dx="1902" dy="1019" grid="1" gridSize="10" guides="1" tooltips="1" connect="1" arrows="1" fold="1" page="1" pageScale="1" pageWidth="1169" pageHeight="827" math="0" shadow="0">
      <root>
        <mxCell id="0" />
        <mxCell id="1" parent="0" />
        <mxCell id="iH32F3Ja712NYHw98OeO-2" value="" style="rounded=0;whiteSpace=wrap;html=1;" parent="1" vertex="1">
          <mxGeometry x="382" y="74" width="408" height="630" as="geometry" />
        </mxCell>
        <mxCell id="iH32F3Ja712NYHw98OeO-6" style="rounded=0;orthogonalLoop=1;jettySize=auto;html=1;entryX=0;entryY=0.5;entryDx=0;entryDy=0;" parent="1" source="iH32F3Ja712NYHw98OeO-3" target="iH32F3Ja712NYHw98OeO-5" edge="1">
          <mxGeometry relative="1" as="geometry" />
        </mxCell>
        <mxCell id="iH32F3Ja712NYHw98OeO-11" style="rounded=0;orthogonalLoop=1;jettySize=auto;html=1;entryX=0;entryY=0.5;entryDx=0;entryDy=0;endArrow=classic;endFill=1;" parent="1" source="iH32F3Ja712NYHw98OeO-3" target="iH32F3Ja712NYHw98OeO-8" edge="1">
          <mxGeometry relative="1" as="geometry" />
        </mxCell>
        <mxCell id="R7AcL8l80TUTKIZmGF8t-13" style="edgeStyle=none;rounded=0;orthogonalLoop=1;jettySize=auto;html=1;entryX=0;entryY=0.5;entryDx=0;entryDy=0;" edge="1" parent="1" source="iH32F3Ja712NYHw98OeO-3" target="R7AcL8l80TUTKIZmGF8t-12">
          <mxGeometry relative="1" as="geometry" />
        </mxCell>
        <mxCell id="iH32F3Ja712NYHw98OeO-3" value="Customer" style="shape=umlActor;verticalLabelPosition=bottom;verticalAlign=top;html=1;outlineConnect=0;" parent="1" vertex="1">
          <mxGeometry x="230" y="290" width="30" height="60" as="geometry" />
        </mxCell>
        <mxCell id="iH32F3Ja712NYHw98OeO-13" style="edgeStyle=none;rounded=0;orthogonalLoop=1;jettySize=auto;html=1;entryX=1;entryY=0.5;entryDx=0;entryDy=0;endArrow=classic;endFill=1;" parent="1" source="iH32F3Ja712NYHw98OeO-4" target="iH32F3Ja712NYHw98OeO-5" edge="1">
          <mxGeometry relative="1" as="geometry" />
        </mxCell>
        <mxCell id="R7AcL8l80TUTKIZmGF8t-14" style="edgeStyle=none;rounded=0;orthogonalLoop=1;jettySize=auto;html=1;entryX=1;entryY=0.5;entryDx=0;entryDy=0;" edge="1" parent="1" source="iH32F3Ja712NYHw98OeO-4" target="R7AcL8l80TUTKIZmGF8t-12">
          <mxGeometry relative="1" as="geometry" />
        </mxCell>
        <mxCell id="iH32F3Ja712NYHw98OeO-4" value="Operator" style="shape=umlActor;verticalLabelPosition=bottom;verticalAlign=top;html=1;outlineConnect=0;" parent="1" vertex="1">
          <mxGeometry x="900" y="230" width="30" height="60" as="geometry" />
        </mxCell>
        <mxCell id="R7AcL8l80TUTKIZmGF8t-11" value="&amp;lt;&amp;lt;Include&amp;gt;&amp;gt;" style="edgeStyle=none;rounded=0;orthogonalLoop=1;jettySize=auto;html=1;entryX=0;entryY=0;entryDx=0;entryDy=0;dashed=1;" edge="1" parent="1" source="iH32F3Ja712NYHw98OeO-5" target="iH32F3Ja712NYHw98OeO-7">
          <mxGeometry relative="1" as="geometry" />
        </mxCell>
        <mxCell id="iH32F3Ja712NYHw98OeO-5" value="&lt;div&gt;Pendaftaran Member&lt;/div&gt;" style="ellipse;whiteSpace=wrap;html=1;" parent="1" vertex="1">
          <mxGeometry x="535" y="110" width="120" height="80" as="geometry" />
        </mxCell>
        <mxCell id="iH32F3Ja712NYHw98OeO-7" value="&lt;div&gt;Memilih Langganan&lt;/div&gt;" style="ellipse;whiteSpace=wrap;html=1;" parent="1" vertex="1">
          <mxGeometry x="640" y="210" width="120" height="80" as="geometry" />
        </mxCell>
        <mxCell id="R7AcL8l80TUTKIZmGF8t-2" value="&amp;lt;&amp;lt;Include&amp;gt;&amp;gt;" style="rounded=0;orthogonalLoop=1;jettySize=auto;html=1;entryX=0.5;entryY=1;entryDx=0;entryDy=0;startArrow=none;exitX=0.917;exitY=0.2;exitDx=0;exitDy=0;exitPerimeter=0;dashed=1;" edge="1" parent="1" source="iH32F3Ja712NYHw98OeO-8" target="R7AcL8l80TUTKIZmGF8t-1">
          <mxGeometry relative="1" as="geometry">
            <Array as="points" />
          </mxGeometry>
        </mxCell>
        <mxCell id="iH32F3Ja712NYHw98OeO-8" value="Pengiriman&lt;div&gt;Produk&lt;/div&gt;" style="ellipse;whiteSpace=wrap;html=1;" parent="1" vertex="1">
          <mxGeometry x="535" y="550" width="120" height="80" as="geometry" />
        </mxCell>
        <mxCell id="iH32F3Ja712NYHw98OeO-14" value="OTMC" style="rounded=0;whiteSpace=wrap;html=1;" parent="1" vertex="1">
          <mxGeometry x="382" y="54" width="408" height="20" as="geometry" />
        </mxCell>
        <mxCell id="R7AcL8l80TUTKIZmGF8t-1" value="&lt;div&gt;Periksa&lt;/div&gt;&lt;div&gt;Langganan&lt;br&gt;&lt;/div&gt;" style="ellipse;whiteSpace=wrap;html=1;" vertex="1" parent="1">
          <mxGeometry x="620" y="460" width="130" height="73.5" as="geometry" />
        </mxCell>
        <mxCell id="R7AcL8l80TUTKIZmGF8t-4" value="UC - 1" style="text;html=1;strokeColor=none;fillColor=none;align=center;verticalAlign=middle;whiteSpace=wrap;rounded=0;rotation=-25;" vertex="1" parent="1">
          <mxGeometry x="460" y="140" width="60" height="30" as="geometry" />
        </mxCell>
        <mxCell id="R7AcL8l80TUTKIZmGF8t-7" value="UC - 2" style="text;html=1;strokeColor=none;fillColor=none;align=center;verticalAlign=middle;whiteSpace=wrap;rounded=0;rotation=5;" vertex="1" parent="1">
          <mxGeometry x="450" y="320" width="60" height="30" as="geometry" />
        </mxCell>
        <mxCell id="R7AcL8l80TUTKIZmGF8t-17" style="edgeStyle=none;rounded=0;orthogonalLoop=1;jettySize=auto;html=1;entryX=1;entryY=0.5;entryDx=0;entryDy=0;" edge="1" parent="1" source="R7AcL8l80TUTKIZmGF8t-8" target="iH32F3Ja712NYHw98OeO-8">
          <mxGeometry relative="1" as="geometry" />
        </mxCell>
        <mxCell id="R7AcL8l80TUTKIZmGF8t-8" value="Pos" style="shape=umlActor;verticalLabelPosition=bottom;verticalAlign=top;html=1;outlineConnect=0;" vertex="1" parent="1">
          <mxGeometry x="900" y="466.75" width="30" height="60" as="geometry" />
        </mxCell>
        <mxCell id="R7AcL8l80TUTKIZmGF8t-12" value="Pembayaran" style="ellipse;whiteSpace=wrap;html=1;" vertex="1" parent="1">
          <mxGeometry x="535" y="320" width="120" height="80" as="geometry" />
        </mxCell>
        <mxCell id="R7AcL8l80TUTKIZmGF8t-15" value="UC - 3" style="text;html=1;strokeColor=none;fillColor=none;align=center;verticalAlign=middle;whiteSpace=wrap;rounded=0;rotation=30;" vertex="1" parent="1">
          <mxGeometry x="470" y="520" width="60" height="30" as="geometry" />
        </mxCell>
      </root>
    </mxGraphModel>
  </diagram>
  <diagram id="jAcBPshBVApu7sfzW5zK" name="Class_Diagram">
    <mxGraphModel dx="1902" dy="1019" grid="1" gridSize="10" guides="1" tooltips="1" connect="1" arrows="1" fold="1" page="1" pageScale="1" pageWidth="1169" pageHeight="827" math="0" shadow="0">
      <root>
        <mxCell id="EjlfljSVDoqXhnCdeqtV-0" />
        <mxCell id="EjlfljSVDoqXhnCdeqtV-1" parent="EjlfljSVDoqXhnCdeqtV-0" />
        <mxCell id="iLiBXCcqP8bcQm9kTHLy-0" value="Operator" style="swimlane;fontStyle=1;align=center;verticalAlign=top;childLayout=stackLayout;horizontal=1;startSize=26;horizontalStack=0;resizeParent=1;resizeParentMax=0;resizeLast=0;collapsible=1;marginBottom=0;" vertex="1" parent="EjlfljSVDoqXhnCdeqtV-1">
          <mxGeometry x="720" y="198" width="160" height="170" as="geometry" />
        </mxCell>
        <mxCell id="iLiBXCcqP8bcQm9kTHLy-1" value="-Id : Integer&#xa;- Name : Varchar&#xa;- Password : Varchar&#xa;" style="text;strokeColor=none;fillColor=none;align=left;verticalAlign=top;spacingLeft=4;spacingRight=4;overflow=hidden;rotatable=0;points=[[0,0.5],[1,0.5]];portConstraint=eastwest;" vertex="1" parent="iLiBXCcqP8bcQm9kTHLy-0">
          <mxGeometry y="26" width="160" height="64" as="geometry" />
        </mxCell>
        <mxCell id="iLiBXCcqP8bcQm9kTHLy-2" value="" style="line;strokeWidth=1;fillColor=none;align=left;verticalAlign=middle;spacingTop=-1;spacingLeft=3;spacingRight=3;rotatable=0;labelPosition=right;points=[];portConstraint=eastwest;" vertex="1" parent="iLiBXCcqP8bcQm9kTHLy-0">
          <mxGeometry y="90" width="160" height="8" as="geometry" />
        </mxCell>
        <mxCell id="iLiBXCcqP8bcQm9kTHLy-3" value="+ createVA()&#xa;+ addNewCustomer()&#xa;+ modifyCustomer()&#xa;+ &#xa;" style="text;strokeColor=none;fillColor=none;align=left;verticalAlign=top;spacingLeft=4;spacingRight=4;overflow=hidden;rotatable=0;points=[[0,0.5],[1,0.5]];portConstraint=eastwest;" vertex="1" parent="iLiBXCcqP8bcQm9kTHLy-0">
          <mxGeometry y="98" width="160" height="72" as="geometry" />
        </mxCell>
        <mxCell id="rdbrzUH5tiRKDGOBsmFA-0" value="Data_Cust" style="swimlane;fontStyle=1;align=center;verticalAlign=top;childLayout=stackLayout;horizontal=1;startSize=26;horizontalStack=0;resizeParent=1;resizeParentMax=0;resizeLast=0;collapsible=1;marginBottom=0;" vertex="1" parent="EjlfljSVDoqXhnCdeqtV-1">
          <mxGeometry x="220" y="460" width="160" height="124" as="geometry" />
        </mxCell>
        <mxCell id="rdbrzUH5tiRKDGOBsmFA-1" value="- Id : Integer&#xa;- Paket : Varchar&#xa;- Total_paket : Integer&#xa;- Address : Varchar&#xa;" style="text;strokeColor=none;fillColor=none;align=left;verticalAlign=top;spacingLeft=4;spacingRight=4;overflow=hidden;rotatable=0;points=[[0,0.5],[1,0.5]];portConstraint=eastwest;" vertex="1" parent="rdbrzUH5tiRKDGOBsmFA-0">
          <mxGeometry y="26" width="160" height="64" as="geometry" />
        </mxCell>
        <mxCell id="rdbrzUH5tiRKDGOBsmFA-2" value="" style="line;strokeWidth=1;fillColor=none;align=left;verticalAlign=middle;spacingTop=-1;spacingLeft=3;spacingRight=3;rotatable=0;labelPosition=right;points=[];portConstraint=eastwest;" vertex="1" parent="rdbrzUH5tiRKDGOBsmFA-0">
          <mxGeometry y="90" width="160" height="8" as="geometry" />
        </mxCell>
        <mxCell id="rdbrzUH5tiRKDGOBsmFA-3" value="+DisplayLangganan()" style="text;strokeColor=none;fillColor=none;align=left;verticalAlign=top;spacingLeft=4;spacingRight=4;overflow=hidden;rotatable=0;points=[[0,0.5],[1,0.5]];portConstraint=eastwest;" vertex="1" parent="rdbrzUH5tiRKDGOBsmFA-0">
          <mxGeometry y="98" width="160" height="26" as="geometry" />
        </mxCell>
        <mxCell id="rdbrzUH5tiRKDGOBsmFA-4" value="Pos" style="swimlane;fontStyle=1;align=center;verticalAlign=top;childLayout=stackLayout;horizontal=1;startSize=26;horizontalStack=0;resizeParent=1;resizeParentMax=0;resizeLast=0;collapsible=1;marginBottom=0;" vertex="1" parent="EjlfljSVDoqXhnCdeqtV-1">
          <mxGeometry x="710" y="470" width="160" height="104" as="geometry" />
        </mxCell>
        <mxCell id="rdbrzUH5tiRKDGOBsmFA-5" value="- Id : Integer&#xa;- Name : Varchar" style="text;strokeColor=none;fillColor=none;align=left;verticalAlign=top;spacingLeft=4;spacingRight=4;overflow=hidden;rotatable=0;points=[[0,0.5],[1,0.5]];portConstraint=eastwest;" vertex="1" parent="rdbrzUH5tiRKDGOBsmFA-4">
          <mxGeometry y="26" width="160" height="44" as="geometry" />
        </mxCell>
        <mxCell id="rdbrzUH5tiRKDGOBsmFA-6" value="" style="line;strokeWidth=1;fillColor=none;align=left;verticalAlign=middle;spacingTop=-1;spacingLeft=3;spacingRight=3;rotatable=0;labelPosition=right;points=[];portConstraint=eastwest;" vertex="1" parent="rdbrzUH5tiRKDGOBsmFA-4">
          <mxGeometry y="70" width="160" height="8" as="geometry" />
        </mxCell>
        <mxCell id="rdbrzUH5tiRKDGOBsmFA-7" value="+getData_Cust()" style="text;strokeColor=none;fillColor=none;align=left;verticalAlign=top;spacingLeft=4;spacingRight=4;overflow=hidden;rotatable=0;points=[[0,0.5],[1,0.5]];portConstraint=eastwest;" vertex="1" parent="rdbrzUH5tiRKDGOBsmFA-4">
          <mxGeometry y="78" width="160" height="26" as="geometry" />
        </mxCell>
        <mxCell id="rdbrzUH5tiRKDGOBsmFA-8" value="Customer" style="swimlane;fontStyle=1;align=center;verticalAlign=top;childLayout=stackLayout;horizontal=1;startSize=26;horizontalStack=0;resizeParent=1;resizeParentMax=0;resizeLast=0;collapsible=1;marginBottom=0;" vertex="1" parent="EjlfljSVDoqXhnCdeqtV-1">
          <mxGeometry x="180" y="200" width="220" height="166" as="geometry" />
        </mxCell>
        <mxCell id="rdbrzUH5tiRKDGOBsmFA-9" value="- Id : Integer&#xa;- Name : Varchar&#xa;- Address : Varchar&#xa;- Lama_langganan : Integer&#xa;- Paket : Varchar&#xa;- Total_paket : Integer&#xa;" style="text;strokeColor=none;fillColor=none;align=left;verticalAlign=top;spacingLeft=4;spacingRight=4;overflow=hidden;rotatable=0;points=[[0,0.5],[1,0.5]];portConstraint=eastwest;" vertex="1" parent="rdbrzUH5tiRKDGOBsmFA-8">
          <mxGeometry y="26" width="220" height="106" as="geometry" />
        </mxCell>
        <mxCell id="rdbrzUH5tiRKDGOBsmFA-10" value="" style="line;strokeWidth=1;fillColor=none;align=left;verticalAlign=middle;spacingTop=-1;spacingLeft=3;spacingRight=3;rotatable=0;labelPosition=right;points=[];portConstraint=eastwest;" vertex="1" parent="rdbrzUH5tiRKDGOBsmFA-8">
          <mxGeometry y="132" width="220" height="8" as="geometry" />
        </mxCell>
        <mxCell id="rdbrzUH5tiRKDGOBsmFA-11" value="+ payVA()" style="text;strokeColor=none;fillColor=none;align=left;verticalAlign=top;spacingLeft=4;spacingRight=4;overflow=hidden;rotatable=0;points=[[0,0.5],[1,0.5]];portConstraint=eastwest;" vertex="1" parent="rdbrzUH5tiRKDGOBsmFA-8">
          <mxGeometry y="140" width="220" height="26" as="geometry" />
        </mxCell>
        <mxCell id="rdbrzUH5tiRKDGOBsmFA-39" style="edgeStyle=none;rounded=0;orthogonalLoop=1;jettySize=auto;html=1;entryX=0.469;entryY=1.115;entryDx=0;entryDy=0;entryPerimeter=0;" edge="1" parent="EjlfljSVDoqXhnCdeqtV-1" source="rdbrzUH5tiRKDGOBsmFA-28" target="rdbrzUH5tiRKDGOBsmFA-3">
          <mxGeometry relative="1" as="geometry" />
        </mxCell>
        <mxCell id="rdbrzUH5tiRKDGOBsmFA-28" value="Produk" style="swimlane;fontStyle=1;align=center;verticalAlign=top;childLayout=stackLayout;horizontal=1;startSize=26;horizontalStack=0;resizeParent=1;resizeParentMax=0;resizeLast=0;collapsible=1;marginBottom=0;" vertex="1" parent="EjlfljSVDoqXhnCdeqtV-1">
          <mxGeometry x="130" y="660" width="160" height="104" as="geometry" />
        </mxCell>
        <mxCell id="rdbrzUH5tiRKDGOBsmFA-29" value="- NamaProduk : Varchar&#xa;- BeratProduk : Integer&#xa;" style="text;strokeColor=none;fillColor=none;align=left;verticalAlign=top;spacingLeft=4;spacingRight=4;overflow=hidden;rotatable=0;points=[[0,0.5],[1,0.5]];portConstraint=eastwest;" vertex="1" parent="rdbrzUH5tiRKDGOBsmFA-28">
          <mxGeometry y="26" width="160" height="44" as="geometry" />
        </mxCell>
        <mxCell id="rdbrzUH5tiRKDGOBsmFA-30" value="" style="line;strokeWidth=1;fillColor=none;align=left;verticalAlign=middle;spacingTop=-1;spacingLeft=3;spacingRight=3;rotatable=0;labelPosition=right;points=[];portConstraint=eastwest;" vertex="1" parent="rdbrzUH5tiRKDGOBsmFA-28">
          <mxGeometry y="70" width="160" height="8" as="geometry" />
        </mxCell>
        <mxCell id="rdbrzUH5tiRKDGOBsmFA-31" value="+DisplayProduk()" style="text;strokeColor=none;fillColor=none;align=left;verticalAlign=top;spacingLeft=4;spacingRight=4;overflow=hidden;rotatable=0;points=[[0,0.5],[1,0.5]];portConstraint=eastwest;" vertex="1" parent="rdbrzUH5tiRKDGOBsmFA-28">
          <mxGeometry y="78" width="160" height="26" as="geometry" />
        </mxCell>
        <mxCell id="rdbrzUH5tiRKDGOBsmFA-40" style="edgeStyle=none;rounded=0;orthogonalLoop=1;jettySize=auto;html=1;" edge="1" parent="EjlfljSVDoqXhnCdeqtV-1" source="rdbrzUH5tiRKDGOBsmFA-32" target="rdbrzUH5tiRKDGOBsmFA-3">
          <mxGeometry relative="1" as="geometry" />
        </mxCell>
        <mxCell id="rdbrzUH5tiRKDGOBsmFA-32" value="Game" style="swimlane;fontStyle=1;align=center;verticalAlign=top;childLayout=stackLayout;horizontal=1;startSize=26;horizontalStack=0;resizeParent=1;resizeParentMax=0;resizeLast=0;collapsible=1;marginBottom=0;" vertex="1" parent="EjlfljSVDoqXhnCdeqtV-1">
          <mxGeometry x="330" y="660" width="160" height="114" as="geometry" />
        </mxCell>
        <mxCell id="rdbrzUH5tiRKDGOBsmFA-33" value="- Genre : Varchar&#xa;- Nama : Varchar&#xa;" style="text;strokeColor=none;fillColor=none;align=left;verticalAlign=top;spacingLeft=4;spacingRight=4;overflow=hidden;rotatable=0;points=[[0,0.5],[1,0.5]];portConstraint=eastwest;" vertex="1" parent="rdbrzUH5tiRKDGOBsmFA-32">
          <mxGeometry y="26" width="160" height="54" as="geometry" />
        </mxCell>
        <mxCell id="rdbrzUH5tiRKDGOBsmFA-34" value="" style="line;strokeWidth=1;fillColor=none;align=left;verticalAlign=middle;spacingTop=-1;spacingLeft=3;spacingRight=3;rotatable=0;labelPosition=right;points=[];portConstraint=eastwest;" vertex="1" parent="rdbrzUH5tiRKDGOBsmFA-32">
          <mxGeometry y="80" width="160" height="8" as="geometry" />
        </mxCell>
        <mxCell id="rdbrzUH5tiRKDGOBsmFA-35" value="+DisplayGame()" style="text;strokeColor=none;fillColor=none;align=left;verticalAlign=top;spacingLeft=4;spacingRight=4;overflow=hidden;rotatable=0;points=[[0,0.5],[1,0.5]];portConstraint=eastwest;" vertex="1" parent="rdbrzUH5tiRKDGOBsmFA-32">
          <mxGeometry y="88" width="160" height="26" as="geometry" />
        </mxCell>
        <mxCell id="rdbrzUH5tiRKDGOBsmFA-41" value="" style="endArrow=block;startArrow=block;endFill=1;startFill=1;html=1;rounded=0;exitX=0.419;exitY=1.014;exitDx=0;exitDy=0;exitPerimeter=0;entryX=0.463;entryY=0;entryDx=0;entryDy=0;entryPerimeter=0;" edge="1" parent="EjlfljSVDoqXhnCdeqtV-1" source="iLiBXCcqP8bcQm9kTHLy-3" target="rdbrzUH5tiRKDGOBsmFA-4">
          <mxGeometry width="160" relative="1" as="geometry">
            <mxPoint x="760" y="440" as="sourcePoint" />
            <mxPoint x="920" y="440" as="targetPoint" />
          </mxGeometry>
        </mxCell>
        <mxCell id="rdbrzUH5tiRKDGOBsmFA-42" value="" style="endArrow=block;startArrow=block;endFill=1;startFill=1;html=1;rounded=0;entryX=-0.006;entryY=0.875;entryDx=0;entryDy=0;entryPerimeter=0;exitX=1;exitY=0.5;exitDx=0;exitDy=0;" edge="1" parent="EjlfljSVDoqXhnCdeqtV-1" source="rdbrzUH5tiRKDGOBsmFA-9" target="iLiBXCcqP8bcQm9kTHLy-1">
          <mxGeometry width="160" relative="1" as="geometry">
            <mxPoint x="410" y="279" as="sourcePoint" />
            <mxPoint x="570" y="279" as="targetPoint" />
          </mxGeometry>
        </mxCell>
        <mxCell id="rdbrzUH5tiRKDGOBsmFA-43" value="1" style="endArrow=open;html=1;endSize=12;startArrow=diamondThin;startSize=14;startFill=0;edgeStyle=orthogonalEdgeStyle;align=left;verticalAlign=bottom;rounded=0;exitX=0.545;exitY=1.154;exitDx=0;exitDy=0;exitPerimeter=0;entryX=0.5;entryY=0;entryDx=0;entryDy=0;" edge="1" parent="EjlfljSVDoqXhnCdeqtV-1" source="rdbrzUH5tiRKDGOBsmFA-11" target="rdbrzUH5tiRKDGOBsmFA-0">
          <mxGeometry x="-1" y="3" relative="1" as="geometry">
            <mxPoint x="420" y="530" as="sourcePoint" />
            <mxPoint x="580" y="530" as="targetPoint" />
            <Array as="points">
              <mxPoint x="300" y="430" />
              <mxPoint x="300" y="430" />
            </Array>
          </mxGeometry>
        </mxCell>
        <mxCell id="rdbrzUH5tiRKDGOBsmFA-44" value="" style="endArrow=block;startArrow=block;endFill=1;startFill=1;html=1;rounded=0;entryX=0;entryY=0.5;entryDx=0;entryDy=0;exitX=1;exitY=0.5;exitDx=0;exitDy=0;" edge="1" parent="EjlfljSVDoqXhnCdeqtV-1" target="rdbrzUH5tiRKDGOBsmFA-5">
          <mxGeometry width="160" relative="1" as="geometry">
            <mxPoint x="380" y="520" as="sourcePoint" />
            <mxPoint x="699.04" y="521" as="targetPoint" />
          </mxGeometry>
        </mxCell>
      </root>
    </mxGraphModel>
  </diagram>
</mxfile>
